
<svg viewBox="0 0 760 380" role="img" aria-label="Normalized introduced diagnostics by scope and iteration">
  <line x1="68" y1="332.00" x2="740" y2="332.00" stroke="#e7e5e4" stroke-width="1"/><text x="58" y="336.00" text-anchor="end" font-size="12" fill="#6b7280">0%</text><line x1="68" y1="255.00" x2="740" y2="255.00" stroke="#e7e5e4" stroke-width="1"/><text x="58" y="259.00" text-anchor="end" font-size="12" fill="#6b7280">25%</text><line x1="68" y1="178.00" x2="740" y2="178.00" stroke="#e7e5e4" stroke-width="1"/><text x="58" y="182.00" text-anchor="end" font-size="12" fill="#6b7280">50%</text><line x1="68" y1="101.00" x2="740" y2="101.00" stroke="#e7e5e4" stroke-width="1"/><text x="58" y="105.00" text-anchor="end" font-size="12" fill="#6b7280">75%</text><line x1="68" y1="24.00" x2="740" y2="24.00" stroke="#e7e5e4" stroke-width="1"/><text x="58" y="28.00" text-anchor="end" font-size="12" fill="#6b7280">100%</text>
  <line x1="68" y1="332" x2="740" y2="332" stroke="#374151" stroke-width="1.5"/>
  <line x1="68" y1="24" x2="68" y2="332" stroke="#374151" stroke-width="1.5"/>
  <rect x="74.72" y="131.44" width="28.56" height="200.56" fill="#0f766e"/><rect x="74.72" y="52.65" width="28.56" height="78.79" fill="#eab308"/><rect x="74.72" y="24.00" width="28.56" height="28.65" fill="#f97316"/><text x="89.00" y="354.00" text-anchor="middle" font-size="12" fill="#6b7280">1</text><rect x="116.72" y="228.37" width="28.56" height="103.63" fill="#0f766e"/><rect x="116.72" y="40.31" width="28.56" height="188.06" fill="#eab308"/><rect x="116.72" y="24.00" width="28.56" height="16.31" fill="#f97316"/><text x="131.00" y="354.00" text-anchor="middle" font-size="12" fill="#6b7280">2</text><rect x="158.72" y="167.26" width="28.56" height="164.74" fill="#0f766e"/><rect x="158.72" y="70.56" width="28.56" height="96.70" fill="#eab308"/><rect x="158.72" y="24.00" width="28.56" height="46.56" fill="#f97316"/><text x="173.00" y="354.00" text-anchor="middle" font-size="12" fill="#6b7280">3</text><rect x="200.72" y="148.67" width="28.56" height="183.33" fill="#0f766e"/><rect x="200.72" y="82.67" width="28.56" height="66.00" fill="#eab308"/><rect x="200.72" y="24.00" width="28.56" height="58.67" fill="#f97316"/><text x="215.00" y="354.00" text-anchor="middle" font-size="12" fill="#6b7280">4</text><rect x="242.72" y="168.94" width="28.56" height="163.06" fill="#0f766e"/><rect x="242.72" y="73.82" width="28.56" height="95.12" fill="#eab308"/><rect x="242.72" y="24.00" width="28.56" height="49.82" fill="#f97316"/><text x="257.00" y="354.00" text-anchor="middle" font-size="12" fill="#6b7280">5</text><rect x="284.72" y="157.00" width="28.56" height="175.00" fill="#0f766e"/><rect x="284.72" y="69.50" width="28.56" height="87.50" fill="#eab308"/><rect x="284.72" y="24.00" width="28.56" height="45.50" fill="#f97316"/><text x="299.00" y="354.00" text-anchor="middle" font-size="12" fill="#6b7280">6</text><rect x="326.72" y="170.38" width="28.56" height="161.62" fill="#0f766e"/><rect x="326.72" y="75.84" width="28.56" height="94.53" fill="#eab308"/><rect x="326.72" y="24.00" width="28.56" height="51.84" fill="#f97316"/><text x="341.00" y="354.00" text-anchor="middle" font-size="12" fill="#6b7280">7</text><rect x="368.72" y="143.61" width="28.56" height="188.39" fill="#0f766e"/><rect x="368.72" y="68.85" width="28.56" height="74.76" fill="#eab308"/><rect x="368.72" y="24.00" width="28.56" height="44.85" fill="#f97316"/><text x="383.00" y="354.00" text-anchor="middle" font-size="12" fill="#6b7280">8</text><rect x="410.72" y="158.75" width="28.56" height="173.25" fill="#0f766e"/><rect x="410.72" y="62.50" width="28.56" height="96.25" fill="#eab308"/><rect x="410.72" y="24.00" width="28.56" height="38.50" fill="#f97316"/><text x="425.00" y="354.00" text-anchor="middle" font-size="12" fill="#6b7280">9</text><rect x="452.72" y="124.90" width="28.56" height="207.10" fill="#0f766e"/><rect x="452.72" y="63.83" width="28.56" height="61.07" fill="#eab308"/><rect x="452.72" y="24.00" width="28.56" height="39.83" fill="#f97316"/><text x="467.00" y="354.00" text-anchor="middle" font-size="12" fill="#6b7280">10</text><rect x="494.72" y="154.99" width="28.56" height="177.01" fill="#0f766e"/><rect x="494.72" y="77.10" width="28.56" height="77.89" fill="#eab308"/><rect x="494.72" y="24.00" width="28.56" height="53.10" fill="#f97316"/><text x="509.00" y="354.00" text-anchor="middle" font-size="12" fill="#6b7280">11</text><rect x="536.72" y="159.67" width="28.56" height="172.33" fill="#0f766e"/><rect x="536.72" y="71.67" width="28.56" height="88.00" fill="#eab308"/><rect x="536.72" y="24.00" width="28.56" height="47.67" fill="#f97316"/><text x="551.00" y="354.00" text-anchor="middle" font-size="12" fill="#6b7280">12</text><rect x="578.72" y="126.67" width="28.56" height="205.33" fill="#0f766e"/><rect x="578.72" y="46.00" width="28.56" height="80.67" fill="#eab308"/><rect x="578.72" y="24.00" width="28.56" height="22.00" fill="#f97316"/><text x="593.00" y="354.00" text-anchor="middle" font-size="12" fill="#6b7280">13</text><rect x="620.72" y="151.01" width="28.56" height="180.99" fill="#0f766e"/><rect x="620.72" y="74.80" width="28.56" height="76.21" fill="#eab308"/><rect x="620.72" y="24.00" width="28.56" height="50.80" fill="#f97316"/><text x="635.00" y="354.00" text-anchor="middle" font-size="12" fill="#6b7280">14</text><rect x="662.72" y="157.47" width="28.56" height="174.53" fill="#0f766e"/><rect x="662.72" y="78.76" width="28.56" height="78.71" fill="#eab308"/><rect x="662.72" y="24.00" width="28.56" height="54.76" fill="#f97316"/><text x="677.00" y="354.00" text-anchor="middle" font-size="12" fill="#6b7280">15</text><rect x="704.72" y="166.15" width="28.56" height="165.85" fill="#0f766e"/><rect x="704.72" y="71.38" width="28.56" height="94.77" fill="#eab308"/><rect x="704.72" y="24.00" width="28.56" height="47.38" fill="#f97316"/><text x="719.00" y="354.00" text-anchor="middle" font-size="12" fill="#6b7280">16</text>
  <text x="380.00" y="354" text-anchor="middle" font-size="13" fill="#374151">Iteration</text>
  <text x="18" y="190.00" text-anchor="middle" font-size="13" fill="#374151" transform="rotate(-90 18 190.00)">Share of Introduced Diagnostics (%)</text>
  <rect x="68" y="356" width="12" height="12" fill="#0f766e"/><text x="86" y="366.00" font-size="12" fill="#374151">Same block</text><rect x="233" y="356" width="12" height="12" fill="#eab308"/><text x="251" y="366.00" font-size="12" fill="#374151">Same file, other block</text><rect x="398" y="356" width="12" height="12" fill="#f97316"/><text x="416" y="366.00" font-size="12" fill="#374151">Same module, other file</text><rect x="563" y="356" width="12" height="12" fill="#b91c1c"/><text x="581" y="366.00" font-size="12" fill="#374151">Outside module</text>
</svg>
