
<svg viewBox="0 0 760 360" role="img" aria-label="Solved and unresolved problems by iteration">
  <rect x="68" y="24" width="672" height="294" fill="#fda4af"/>
  <line x1="68" y1="318.00" x2="740" y2="318.00" stroke="#e7e5e4" stroke-width="1"/><text x="58" y="322.00" text-anchor="end" font-size="12" fill="#6b7280">0</text><line x1="68" y1="245.12" x2="740" y2="245.12" stroke="#e7e5e4" stroke-width="1"/><text x="58" y="249.12" text-anchor="end" font-size="12" fill="#6b7280">59</text><line x1="68" y1="171.00" x2="740" y2="171.00" stroke="#e7e5e4" stroke-width="1"/><text x="58" y="175.00" text-anchor="end" font-size="12" fill="#6b7280">119</text><line x1="68" y1="98.12" x2="740" y2="98.12" stroke="#e7e5e4" stroke-width="1"/><text x="58" y="102.12" text-anchor="end" font-size="12" fill="#6b7280">178</text><line x1="68" y1="24.00" x2="740" y2="24.00" stroke="#e7e5e4" stroke-width="1"/><text x="58" y="28.00" text-anchor="end" font-size="12" fill="#6b7280">238</text>
  <polygon points="68.00,318.00 68.00,169.76 112.80,146.29 157.60,135.18 202.40,129.00 247.20,126.53 292.00,121.59 336.80,112.94 381.60,111.71 426.40,110.47 471.20,105.53 516.00,105.53 560.80,104.29 605.60,101.82 650.40,101.82 695.20,101.82 740.00,101.82 740.00,318.00" fill="#9bd7c2" opacity="0.98"/>
  <polyline points="68.00,169.76 112.80,146.29 157.60,135.18 202.40,129.00 247.20,126.53 292.00,121.59 336.80,112.94 381.60,111.71 426.40,110.47 471.20,105.53 516.00,105.53 560.80,104.29 605.60,101.82 650.40,101.82 695.20,101.82 740.00,101.82" fill="none" stroke="#1f2937" stroke-width="3" stroke-linejoin="round" stroke-linecap="round"/>
  <line x1="68" y1="318" x2="740" y2="318" stroke="#374151" stroke-width="1.5"/>
  <line x1="68" y1="24" x2="68" y2="318" stroke="#374151" stroke-width="1.5"/>
  <line x1="68.00" y1="318" x2="68.00" y2="324" stroke="#6b7280" stroke-width="1"/><text x="68.00" y="340" text-anchor="middle" font-size="12" fill="#6b7280">1</text><line x1="112.80" y1="318" x2="112.80" y2="324" stroke="#6b7280" stroke-width="1"/><text x="112.80" y="340" text-anchor="middle" font-size="12" fill="#6b7280">2</text><line x1="157.60" y1="318" x2="157.60" y2="324" stroke="#6b7280" stroke-width="1"/><text x="157.60" y="340" text-anchor="middle" font-size="12" fill="#6b7280">3</text><line x1="202.40" y1="318" x2="202.40" y2="324" stroke="#6b7280" stroke-width="1"/><text x="202.40" y="340" text-anchor="middle" font-size="12" fill="#6b7280">4</text><line x1="247.20" y1="318" x2="247.20" y2="324" stroke="#6b7280" stroke-width="1"/><text x="247.20" y="340" text-anchor="middle" font-size="12" fill="#6b7280">5</text><line x1="292.00" y1="318" x2="292.00" y2="324" stroke="#6b7280" stroke-width="1"/><text x="292.00" y="340" text-anchor="middle" font-size="12" fill="#6b7280">6</text><line x1="336.80" y1="318" x2="336.80" y2="324" stroke="#6b7280" stroke-width="1"/><text x="336.80" y="340" text-anchor="middle" font-size="12" fill="#6b7280">7</text><line x1="381.60" y1="318" x2="381.60" y2="324" stroke="#6b7280" stroke-width="1"/><text x="381.60" y="340" text-anchor="middle" font-size="12" fill="#6b7280">8</text><line x1="426.40" y1="318" x2="426.40" y2="324" stroke="#6b7280" stroke-width="1"/><text x="426.40" y="340" text-anchor="middle" font-size="12" fill="#6b7280">9</text><line x1="471.20" y1="318" x2="471.20" y2="324" stroke="#6b7280" stroke-width="1"/><text x="471.20" y="340" text-anchor="middle" font-size="12" fill="#6b7280">10</text><line x1="516.00" y1="318" x2="516.00" y2="324" stroke="#6b7280" stroke-width="1"/><text x="516.00" y="340" text-anchor="middle" font-size="12" fill="#6b7280">11</text><line x1="560.80" y1="318" x2="560.80" y2="324" stroke="#6b7280" stroke-width="1"/><text x="560.80" y="340" text-anchor="middle" font-size="12" fill="#6b7280">12</text><line x1="605.60" y1="318" x2="605.60" y2="324" stroke="#6b7280" stroke-width="1"/><text x="605.60" y="340" text-anchor="middle" font-size="12" fill="#6b7280">13</text><line x1="650.40" y1="318" x2="650.40" y2="324" stroke="#6b7280" stroke-width="1"/><text x="650.40" y="340" text-anchor="middle" font-size="12" fill="#6b7280">14</text><line x1="695.20" y1="318" x2="695.20" y2="324" stroke="#6b7280" stroke-width="1"/><text x="695.20" y="340" text-anchor="middle" font-size="12" fill="#6b7280">15</text><line x1="740.00" y1="318" x2="740.00" y2="324" stroke="#6b7280" stroke-width="1"/><text x="740.00" y="340" text-anchor="middle" font-size="12" fill="#6b7280">16</text>
  <text x="380.00" y="354" text-anchor="middle" font-size="13" fill="#374151">Iteration</text>
  <text x="18" y="180.00" text-anchor="middle" font-size="13" fill="#374151" transform="rotate(-90 18 180.00)">Number of Problems</text>
  <text x="440.80" y="62.91" text-anchor="middle" font-size="18" fill="#111827">Unresolved</text>
  <text x="425.60" y="209.91" text-anchor="middle" font-size="18" fill="#111827">Solved</text>
</svg>
