
<svg viewBox="0 0 760 520" role="img" aria-label="Summary-Level Strict Resolution Profile (%)">
  <rect x="12" y="12" width="736" height="496" fill="white" stroke="#6b7280" stroke-width="1"/>
  <text x="380.00" y="36" text-anchor="middle" font-size="16" fill="#111827">Summary-Level Strict Resolution Profile (%)</text>
  <polygon points="380.00,229.60 405.74,240.26 416.40,266.00 405.74,291.74 380.00,302.40 354.26,291.74 343.60,266.00 354.26,240.26" fill="none" stroke="#d6d3d1" stroke-width="1"/><text x="388.00" y="225.60" font-size="11" fill="#6b7280">25%</text><polygon points="380.00,193.20 431.48,214.52 452.80,266.00 431.48,317.48 380.00,338.80 328.52,317.48 307.20,266.00 328.52,214.52" fill="none" stroke="#d6d3d1" stroke-width="1"/><text x="388.00" y="189.20" font-size="11" fill="#6b7280">50%</text><polygon points="380.00,156.80 457.22,188.78 489.20,266.00 457.22,343.22 380.00,375.20 302.78,343.22 270.80,266.00 302.78,188.78" fill="none" stroke="#d6d3d1" stroke-width="1"/><text x="388.00" y="152.80" font-size="11" fill="#6b7280">75%</text><polygon points="380.00,120.40 482.95,163.05 525.60,266.00 482.95,368.95 380.00,411.60 277.05,368.95 234.40,266.00 277.05,163.05" fill="none" stroke="#d6d3d1" stroke-width="1"/><text x="388.00" y="116.40" font-size="11" fill="#6b7280">100%</text><line x1="380.00" y1="266.00" x2="380.00" y2="120.40" stroke="#d6d3d1" stroke-width="1"/><line x1="380.00" y1="266.00" x2="482.95" y2="163.05" stroke="#d6d3d1" stroke-width="1"/><line x1="380.00" y1="266.00" x2="525.60" y2="266.00" stroke="#d6d3d1" stroke-width="1"/><line x1="380.00" y1="266.00" x2="482.95" y2="368.95" stroke="#d6d3d1" stroke-width="1"/><line x1="380.00" y1="266.00" x2="380.00" y2="411.60" stroke="#d6d3d1" stroke-width="1"/><line x1="380.00" y1="266.00" x2="277.05" y2="368.95" stroke="#d6d3d1" stroke-width="1"/><line x1="380.00" y1="266.00" x2="234.40" y2="266.00" stroke="#d6d3d1" stroke-width="1"/><line x1="380.00" y1="266.00" x2="277.05" y2="163.05" stroke="#d6d3d1" stroke-width="1"/>
  <polygon points="380.00,180.90 420.11,225.89 392.60,266.00 383.08,269.08 380.00,276.34 316.62,329.38 339.70,266.00 351.50,237.50" fill="#2563eb" opacity="0.22"/>
  <polyline points="380.00,180.90 420.11,225.89 392.60,266.00 383.08,269.08 380.00,276.34 316.62,329.38 339.70,266.00 351.50,237.50 380.00,180.90" fill="none" stroke="#2563eb" stroke-width="3" stroke-linejoin="round"/>
  <text x="380.00" y="78.40" text-anchor="middle" font-size="12" fill="#111827"><tspan x="380.00" dy="0">Unsupported</tspan><tspan x="380.00" dy="1.15em">argument</tspan></text><text x="512.65" y="133.35" text-anchor="start" font-size="12" fill="#111827"><tspan x="512.65" dy="0">Argument is</tspan><tspan x="512.65" dy="1.15em">deprecated</tspan></text><text x="567.60" y="266.00" text-anchor="start" font-size="12" fill="#111827"><tspan x="567.60" dy="0">Deprecated</tspan><tspan x="567.60" dy="1.15em">Resource</tspan></text><text x="512.65" y="398.65" text-anchor="start" font-size="12" fill="#111827"><tspan x="512.65" dy="0">Deprecated</tspan><tspan x="512.65" dy="1.15em">attribute</tspan></text><text x="380.00" y="453.60" text-anchor="middle" font-size="12" fill="#111827"><tspan x="380.00" dy="0">Reference to</tspan><tspan x="380.00" dy="1.15em">undeclared...</tspan></text><text x="247.35" y="398.65" text-anchor="end" font-size="12" fill="#111827"><tspan x="247.35" dy="0">Quoted references</tspan><tspan x="247.35" dy="1.15em">are deprecated</tspan></text><text x="192.40" y="266.00" text-anchor="end" font-size="12" fill="#111827"><tspan x="192.40" dy="0">Reference to</tspan><tspan x="192.40" dy="1.15em">undeclared...</tspan></text><text x="247.35" y="133.35" text-anchor="end" font-size="12" fill="#111827"><tspan x="247.35" dy="0">Unsupported block</tspan><tspan x="247.35" dy="1.15em">type</tspan></text>
</svg>
