
<svg viewBox="0 0 760 392" role="img" aria-label="Most Often Strictly Fixed Problem Types (%)">
  <rect x="12" y="12" width="736" height="368" fill="white" stroke="#6b7280" stroke-width="1"/>
  <rect x="20" y="30.00" width="675.00" height="18" rx="0" fill="#1d4ed8"/><text x="28.00" y="39.00" text-anchor="start" dominant-baseline="middle" font-size="12" font-style="italic" fill="#ffffff">Invalid backend configuration</text><text x="687.00" y="39.00" text-anchor="end" dominant-baseline="middle" font-size="12" fill="#111827">93.8%</text><rect x="20" y="66.00" width="540.00" height="18" rx="0" fill="#1d4ed8"/><text x="28.00" y="75.00" text-anchor="start" dominant-baseline="middle" font-size="12" font-style="italic" fill="#ffffff">Cannot index a set value</text><text x="552.00" y="75.00" text-anchor="end" dominant-baseline="middle" font-size="12" fill="#111827">75.0%</text><rect x="20" y="102.00" width="522.00" height="18" rx="0" fill="#1d4ed8"/><text x="28.00" y="111.00" text-anchor="start" dominant-baseline="middle" font-size="12" font-style="italic" fill="#ffffff">Missing resource instance key</text><text x="534.00" y="111.00" text-anchor="end" dominant-baseline="middle" font-size="12" fill="#111827">72.5%</text><rect x="20" y="138.00" width="450.00" height="18" rx="0" fill="#1d4ed8"/><text x="28.00" y="147.00" text-anchor="start" dominant-baseline="middle" font-size="12" font-style="italic" fill="#ffffff">Missing required argument</text><text x="462.00" y="147.00" text-anchor="end" dominant-baseline="middle" font-size="12" fill="#111827">62.5%</text><rect x="20" y="174.00" width="443.25" height="18" rx="0" fill="#1d4ed8"/><text x="28.00" y="183.00" text-anchor="start" dominant-baseline="middle" font-size="12" font-style="italic" fill="#ffffff">Quoted references are deprecated</text><text x="455.25" y="183.00" text-anchor="end" dominant-baseline="middle" font-size="12" fill="#111827">61.6%</text><rect x="20" y="210.00" width="420.81" height="18" rx="0" fill="#1d4ed8"/><text x="28.00" y="219.00" text-anchor="start" dominant-baseline="middle" font-size="12" font-style="italic" fill="#ffffff">Unsupported argument</text><text x="432.81" y="219.00" text-anchor="end" dominant-baseline="middle" font-size="12" fill="#111827">58.4%</text><rect x="20" y="246.00" width="379.29" height="18" rx="0" fill="#1d4ed8"/><text x="28.00" y="255.00" text-anchor="start" dominant-baseline="middle" font-size="12" font-style="italic" fill="#ffffff">Unsupported attribute</text><text x="391.29" y="255.00" text-anchor="end" dominant-baseline="middle" font-size="12" fill="#111827">52.7%</text><rect x="20" y="282.00" width="360.00" height="18" rx="0" fill="#1d4ed8"/><text x="28.00" y="291.00" text-anchor="start" dominant-baseline="middle" font-size="12" font-style="italic" fill="#ffffff">Attribute Deprecated</text><text x="372.00" y="291.00" text-anchor="end" dominant-baseline="middle" font-size="12" fill="#111827">50.0%</text><rect x="20" y="318.00" width="360.00" height="18" rx="0" fill="#1d4ed8"/><text x="28.00" y="327.00" text-anchor="start" dominant-baseline="middle" font-size="12" font-style="italic" fill="#ffffff">Invalid Attribute Combination</text><text x="372.00" y="327.00" text-anchor="end" dominant-baseline="middle" font-size="12" fill="#111827">50.0%</text><rect x="20" y="354.00" width="360.00" height="18" rx="0" fill="#1d4ed8"/><text x="28.00" y="363.00" text-anchor="start" dominant-baseline="middle" font-size="12" font-style="italic" fill="#ffffff">Deprecated Parameter</text><text x="372.00" y="363.00" text-anchor="end" dominant-baseline="middle" font-size="12" fill="#111827">50.0%</text>
</svg>
