
<svg viewBox="0 0 760 392" role="img" aria-label="Most Common Introduced Diagnostic Types (%)">
  <rect x="12" y="12" width="736" height="368" fill="white" stroke="#6b7280" stroke-width="1"/>
  <rect x="20" y="30.00" width="104.59" height="18" rx="0" fill="#d97706"/><text x="132.59" y="39.00" text-anchor="start" dominant-baseline="middle" font-size="12" font-style="italic" fill="#111827">Reference to undeclared resource</text><text x="116.59" y="39.00" text-anchor="end" dominant-baseline="middle" font-size="12" fill="#111827">14.5%</text><rect x="20" y="66.00" width="97.24" height="18" rx="0" fill="#d97706"/><text x="125.24" y="75.00" text-anchor="start" dominant-baseline="middle" font-size="12" font-style="italic" fill="#111827">Unsupported block type</text><text x="109.24" y="75.00" text-anchor="end" dominant-baseline="middle" font-size="12" fill="#111827">13.5%</text><rect x="20" y="102.00" width="95.51" height="18" rx="0" fill="#d97706"/><text x="123.51" y="111.00" text-anchor="start" dominant-baseline="middle" font-size="12" font-style="italic" fill="#111827">Invalid multi-line string</text><text x="107.51" y="111.00" text-anchor="end" dominant-baseline="middle" font-size="12" fill="#111827">13.3%</text><rect x="20" y="138.00" width="79.95" height="18" rx="0" fill="#d97706"/><text x="107.95" y="147.00" text-anchor="start" dominant-baseline="middle" font-size="12" font-style="italic" fill="#111827">Invalid character</text><text x="91.95" y="147.00" text-anchor="end" dominant-baseline="middle" font-size="12" fill="#111827">11.1%</text><rect x="20" y="174.00" width="75.63" height="18" rx="0" fill="#d97706"/><text x="103.63" y="183.00" text-anchor="start" dominant-baseline="middle" font-size="12" font-style="italic" fill="#111827">Unsupported argument</text><text x="87.63" y="183.00" text-anchor="end" dominant-baseline="middle" font-size="12" fill="#111827">10.5%</text><rect x="20" y="210.00" width="53.16" height="18" rx="0" fill="#d97706"/><text x="81.16" y="219.00" text-anchor="start" dominant-baseline="middle" font-size="12" font-style="italic" fill="#111827">Reference to undeclared input variable</text><text x="65.16" y="219.00" text-anchor="end" dominant-baseline="middle" font-size="12" fill="#111827">7.4%</text><rect x="20" y="246.00" width="35.44" height="18" rx="0" fill="#d97706"/><text x="93.44" y="255.00" text-anchor="start" dominant-baseline="middle" font-size="12" font-style="italic" fill="#111827">Error in function call</text><text x="63.44" y="255.00" text-anchor="start" dominant-baseline="middle" font-size="12" fill="#111827">4.9%</text><rect x="20" y="282.00" width="17.72" height="18" rx="0" fill="#d97706"/><text x="75.72" y="291.00" text-anchor="start" dominant-baseline="middle" font-size="12" font-style="italic" fill="#111827">Unsupported attribute</text><text x="45.72" y="291.00" text-anchor="start" dominant-baseline="middle" font-size="12" fill="#111827">2.5%</text><rect x="20" y="318.00" width="16.85" height="18" rx="0" fill="#d97706"/><text x="74.85" y="327.00" text-anchor="start" dominant-baseline="middle" font-size="12" font-style="italic" fill="#111827">Missing required argument</text><text x="44.85" y="327.00" text-anchor="start" dominant-baseline="middle" font-size="12" fill="#111827">2.3%</text><rect x="20" y="354.00" width="14.26" height="18" rx="0" fill="#d97706"/><text x="72.26" y="363.00" text-anchor="start" dominant-baseline="middle" font-size="12" font-style="italic" fill="#111827">Missing item separator</text><text x="42.26" y="363.00" text-anchor="start" dominant-baseline="middle" font-size="12" fill="#111827">2.0%</text>
</svg>
